<svg id="Layer_1" data-name="Layer 1" xmlns="http://www.w3.org/2000/svg" viewBox="0 0 1437.85 965.85"><defs><style>.cls-1{fill:#404240;}.cls-2{fill:#29a1d1;}.cls-3{fill:#f0f1f1;}</style></defs><path class="cls-1" d="M502.17,600.59l-54.5-92H407v92H385V380.4h66.15q36.86,0,55.91,17.64t19.06,46.31q0,23.94-13.7,40.79T471.93,507l56.7,93.56ZM407,490.65h44.41q25.83,0,38.91-12.6t13.07-33.7q0-21.74-12.6-33.55T451.14,399H407Z"/><path class="cls-1" d="M724.87,523.1H582.18q.95,19.53,9.45,33.39a55.67,55.67,0,0,0,22.36,21,65.51,65.51,0,0,0,30.24,7.09q21.42,0,36.07-10.4a48.81,48.81,0,0,0,19.37-28H723a72.81,72.81,0,0,1-26.93,41.11q-20.64,15.91-51.82,15.91-24.26,0-43.47-10.87a76.64,76.64,0,0,1-30.08-30.87q-10.87-20-10.87-46.78t10.71-46.93a74.39,74.39,0,0,1,29.93-30.87q19.2-10.71,43.78-10.71t43,10.71a74,74,0,0,1,28.35,28.82,82.29,82.29,0,0,1,9.92,40.16Q725.5,517.11,724.87,523.1Zm-29.45-50.72a52.16,52.16,0,0,0-21.89-20.47A66.72,66.72,0,0,0,643.29,445q-24.57,0-41.9,15.75t-19.21,44.41h121Q703.44,485.94,695.42,472.38Z"/><path class="cls-1" d="M776.69,589.41q-18.75-13.71-21-37.33h22.68q1.58,14.49,13.7,23.47t32.61,9q18,0,28.19-8.51t10.24-21.11a19.64,19.64,0,0,0-5.67-14.49,40.13,40.13,0,0,0-14.34-9,221.89,221.89,0,0,0-23.46-7.09,238.24,238.24,0,0,1-31.19-10.08,53.21,53.21,0,0,1-20.32-15q-8.34-9.93-8.34-26.62a39.59,39.59,0,0,1,7.56-23.31q7.56-10.71,21.42-17t31.5-6.3q27.7,0,44.73,14t18.27,38.58H861.27q-.94-15.12-11.82-24.41T819.69,445q-16.71,0-27.09,7.87t-10.4,19.53q0,10.1,6.14,16.54A42.13,42.13,0,0,0,803.62,499q9.14,3.63,24.57,8a233.53,233.53,0,0,1,29.61,9.77,51.36,51.36,0,0,1,18.9,13.86q7.88,9.14,8.19,24.25a42.23,42.23,0,0,1-7.56,24.73q-7.56,10.88-21.1,17.17T825,603.11Q795.43,603.11,776.69,589.41Z"/><path class="cls-1" d="M926.16,391.43a15.85,15.85,0,0,1-4.73-11.66,15.32,15.32,0,0,1,4.73-11.49,16.35,16.35,0,0,1,22.68,0,15.31,15.31,0,0,1,4.72,11.49,15.84,15.84,0,0,1-4.72,11.66,16,16,0,0,1-22.68,0Zm22.36,37.17v172h-22v-172Z"/><path class="cls-1" d="M999.23,467.82A76.54,76.54,0,0,1,1028.69,437q18.74-10.87,42.36-10.87,22.68,0,41,11t26.78,28.67V363.71h22V600.59h-22V562.16q-7.87,18-25.83,29.45t-42.21,11.5q-23.62,0-42.37-11a76.42,76.42,0,0,1-29.3-31.19q-10.55-20.16-10.55-46.62T999.23,467.82Zm131,10.23a60.7,60.7,0,0,0-23.15-24.25,63.14,63.14,0,0,0-32.29-8.51,65.51,65.51,0,0,0-32.76,8.19,58.05,58.05,0,0,0-22.83,23.79q-8.36,15.59-8.35,37,0,21.11,8.35,37a58.57,58.57,0,0,0,22.83,24.26,64.48,64.48,0,0,0,32.76,8.35,63.14,63.14,0,0,0,32.29-8.51,60.59,60.59,0,0,0,23.15-24.26q8.51-15.74,8.51-36.54T1130.27,478.05Z"/><path class="cls-1" d="M1242.88,592.24a78.47,78.47,0,0,1-30.55-30.87q-11.19-20-11.18-46.78t11.34-46.77A79.18,79.18,0,0,1,1243.36,437q19.52-10.87,43.78-10.87T1331.08,437A77.83,77.83,0,0,1,1362,467.82q11.19,20,11.19,46.77,0,26.46-11.34,46.62a78.37,78.37,0,0,1-31.19,31q-19.84,10.88-44.1,10.87T1242.88,592.24ZM1318,576.18q14.49-7.73,23.47-23.31t9-38.28q0-22.68-8.82-38.27T1318.33,453a68.12,68.12,0,0,0-63,0q-14.5,7.73-23.16,23.31t-8.66,38.27q0,22.68,8.66,38.28t23,23.31a65,65,0,0,0,31.34,7.72A65.91,65.91,0,0,0,1318,576.18Z"/><path class="cls-2" d="M303.49,389V578.62A24.48,24.48,0,0,1,279,603.11H89.37a24.48,24.48,0,0,1-24.46-24.49V389A24.48,24.48,0,0,1,89.37,364.5H279A24.48,24.48,0,0,1,303.49,389Z"/><path class="cls-3" d="M184,566.42a91.56,91.56,0,0,1-75.42-39.66A5.11,5.11,0,1,1,117,521a81.32,81.32,0,0,0,134.42-.61,5.11,5.11,0,1,1,8.47,5.72A91.48,91.48,0,0,1,184,566.42Z"/><path class="cls-3" d="M247.13,472.33a5.06,5.06,0,0,1-3.62-1.51l-59.18-59.5L124.6,470.84a5.11,5.11,0,0,1-7.22-7.24l63.36-63.14a5.07,5.07,0,0,1,3.61-1.49h0a5.09,5.09,0,0,1,3.61,1.5l62.79,63.14a5.12,5.12,0,0,1-3.63,8.72Z"/><path class="cls-3" d="M177.15,471.12v26a3.36,3.36,0,0,1-3.36,3.36h-26a3.37,3.37,0,0,1-3.35-3.36v-26a3.36,3.36,0,0,1,3.35-3.35h26A3.35,3.35,0,0,1,177.15,471.12Z"/><rect class="cls-3" x="191.33" y="467.77" width="32.68" height="32.69" rx="3.35"/></svg>